<svg version="1.2" xmlns="http://www.w3.org/2000/svg" viewBox="0 0 27 32" width="27" height="32">
	<title>icon__basket</title>
	<style>
		.s0 { fill: #000000 } 
	</style>
	<path id="icon__basket" fill-rule="evenodd" class="s0" d="m24.2 32h-20.4c-0.8 0-1.6-0.4-2.2-1-0.5-0.7-0.7-1.5-0.5-2.4l1.8-16.9c0.3-1.4 1.4-2.4 2.8-2.4h1.9l0.8-5.3c0.4-1.8 1.9-3 3.7-3h3.8c1.8 0 3.3 1.2 3.7 2.9l0.8 5.4h1.9c1.3 0 2.5 1 2.8 2.3l1.9 17.1c0.1 0.8-0.1 1.6-0.6 2.3-0.6 0.6-1.4 1-2.2 1zm-1.9-20.8h-1.6l0.5 3.2c0.1 0.5-0.3 1-0.8 1.1q-0.1 0-0.2 0c-0.5 0-0.9-0.3-0.9-0.8l-0.6-3.5h-9.4l-0.6 3.5c0 0.5-0.5 0.9-1.1 0.8-0.5-0.1-0.9-0.6-0.8-1.1l0.5-3.2h-1.6c-0.4 0-0.8 0.3-0.9 0.7l-1.8 17c-0.1 0.5 0 0.7 0.1 0.8 0.1 0.2 0.3 0.4 0.7 0.4h20.4c0.3 0 0.6-0.2 0.7-0.4 0.1-0.1 0.2-0.3 0.1-0.7l-1.8-17.1c-0.1-0.4-0.5-0.7-0.9-0.7zm-4.6-6.9c-0.2-0.8-0.9-1.4-1.8-1.4h-3.8c-0.9 0-1.6 0.6-1.8 1.5l-0.7 4.9h8.8z"/>
</svg>