<svg version="1.2" xmlns="http://www.w3.org/2000/svg" viewBox="0 0 10 13" width="13" height="13">
	<title>Forma 1</title>
	<style>
		.s0 { fill: #ea215f } 
	</style>
	<path id="Forma 1" fill-rule="evenodd" class="s0" d="m10 6.8v4.8c0 0.8-0.6 1.4-1.3 1.4h-6.4c-0.7 0-1.3-0.6-1.3-1.4v-4.8c0-0.8 0.6-1.4 1.3-1.4h0.8v-1.9c0-1.4 1.1-2.5 2.4-2.5 1.3 0 2.4 1.1 2.4 2.5v1.9h0.8c0.7 0 1.3 0.6 1.3 1.4zm-6-3.3v1.9h3v-1.9c0-0.9-0.7-1.6-1.5-1.6-0.8 0-1.5 0.7-1.5 1.6zm5.1 3.3c0-0.2-0.2-0.5-0.4-0.5h-6.4c-0.2 0-0.4 0.3-0.4 0.5v4.8c0 0.3 0.2 0.5 0.4 0.5h6.4c0.2 0 0.4-0.2 0.4-0.5zm-2.8 1.8c0 0.3-0.1 0.5-0.4 0.7v1c0 0.3-0.2 0.5-0.4 0.5-0.2 0-0.4-0.2-0.4-0.5v-1c-0.3-0.2-0.4-0.4-0.4-0.7 0-0.5 0.3-0.9 0.8-0.9 0.5 0 0.8 0.4 0.8 0.9z"/>
</svg>