<svg version="1.2" xmlns="http://www.w3.org/2000/svg" viewBox="0 0 13 13" width="13" height="13">
	<title>Forma 1</title>
	<style>
		.s0 { fill: #ea215f } 
	</style>
	<path id="Forma 1" fill-rule="evenodd" class="s0" d="m12.6 11.8c-0.3 0.4-0.8 1-2.1 1.2q-0.1 0-0.3 0c-0.7 0-3.1-0.2-6-3.1-2.6-2.6-3.5-4.5-3.1-6.4 0.3-1.3 1-2 1.2-2.1q0.3-0.4 0.9-0.4 0.5 0 0.8 0.4l1.8 1.7c0.5 0.5 0.5 1.3 0 1.8l-0.7 0.7c0.3 0.5 0.7 1.2 1.4 1.9 0.7 0.8 1.4 1.2 1.9 1.5l0.7-0.7c0.3-0.3 0.6-0.4 0.9-0.4q0.5 0 0.9 0.4l1.7 1.7c0.5 0.5 0.5 1.2 0 1.8zm-0.5-1.3l-1.7-1.7q-0.2-0.1-0.4-0.1-0.2 0-0.4 0.1l-0.7 0.7q-0.2 0.2-0.4 0.2c-0.2 0-0.3 0-0.4 0-0.5-0.4-1.3-0.8-2.1-1.6-0.9-0.9-1.3-1.6-1.6-2.2-0.1-0.2-0.1-0.5 0.1-0.7l0.7-0.8c0.2-0.2 0.2-0.6 0.1-0.8l-1.8-1.7q-0.1-0.2-0.3-0.2-0.3 0.1-0.4 0.2l-0.1 0.1c0 0-0.6 0.5-0.9 1.7-0.3 1.6 0.5 3.2 2.9 5.6 2.7 2.7 4.9 3 5.5 3q0.2-0.1 0.2-0.1c1-0.1 1.3-0.5 1.7-0.9 0.1-0.2 0.2-0.5 0-0.8zm-4.2-8.1c0.1-0.2 0.2-0.3 0.4-0.3 0.9 0.1 1.8 0.5 2.4 1.2 0.7 0.7 1.1 1.6 1.2 2.4 0 0.2-0.1 0.4-0.3 0.4q0 0-0.1 0c-0.1 0-0.3-0.1-0.3-0.3-0.1-0.7-0.5-1.4-1-2-0.5-0.5-1.3-0.9-1.9-1-0.2 0-0.4-0.2-0.4-0.4zm-0.3 1.6c0-0.2 0.2-0.4 0.4-0.3 0.6 0 1.2 0.4 1.6 0.8 0.3 0.3 0.7 1 0.8 1.6 0 0.2-0.1 0.4-0.3 0.4q0 0-0.1 0c-0.2 0-0.3-0.1-0.3-0.3-0.1-0.4-0.3-0.9-0.6-1.2-0.4-0.3-0.8-0.6-1.2-0.6-0.2 0-0.3-0.2-0.3-0.4z"/>
</svg>