<svg version="1.2" xmlns="http://www.w3.org/2000/svg" viewBox="0 0 13 14" width="13" height="14">
	<title>Forma 1</title>
	<style>
		.s0 { fill: #ea215f } 
	</style>
	<path id="Forma 1" fill-rule="evenodd" class="s0" d="m1.9 11.1v0.6h4.3q-0.2-0.5-0.2-1.2c0-1 0.4-1.9 1.1-2.5q-0.4-0.1-0.7-0.1h-1.2c-1.8 0-3.3 1.4-3.3 3.2zm-0.4 1.5c-0.3 0-0.5-0.2-0.5-0.4v-1.1c0-2.3 1.9-4.1 4.2-4.1h1.2q0.8 0 1.7 0.4 0.6-0.3 1.4-0.3c1.9 0 3.5 1.5 3.5 3.4 0 1.9-1.6 3.5-3.5 3.5-1.1 0-2.1-0.5-2.8-1.4zm7.1-8.8c0 1.5-1.2 2.7-2.8 2.7-1.5 0-2.7-1.2-2.7-2.7 0-1.6 1.2-2.8 2.7-2.8 1.6 0 2.8 1.2 2.8 2.8zm-0.9 0c0-1.1-0.8-1.9-1.9-1.9-1 0-1.8 0.8-1.8 1.9 0 1 0.8 1.8 1.8 1.8 1.1 0 1.9-0.8 1.9-1.8zm4.5 6.7c0-1.4-1.2-2.5-2.6-2.5-1.5 0-2.6 1.1-2.6 2.5 0 1.4 1.1 2.6 2.6 2.6 1.4 0 2.6-1.2 2.6-2.6zm-2.2-1.2v0.8h0.8c0.3 0 0.5 0.2 0.5 0.4 0 0.3-0.2 0.5-0.5 0.5h-0.8v0.8c0 0.2-0.2 0.4-0.4 0.4-0.3 0-0.5-0.2-0.5-0.4v-0.8h-0.8c-0.2 0-0.4-0.2-0.4-0.5 0-0.2 0.2-0.4 0.4-0.4h0.8v-0.8c0-0.3 0.2-0.5 0.5-0.5 0.2 0 0.4 0.2 0.4 0.5z"/>
</svg>