<svg version="1.2" xmlns="http://www.w3.org/2000/svg" viewBox="0 0 16 16" width="16" height="16">
	<title>icon__lens</title>
	<style>
		.s0 { fill: #ebc7cf } 
	</style>
	<path id="icon__lens" fill-rule="evenodd" class="s0" d="m11 2.7c-2.3-2.3-6-2.3-8.3 0-2.3 2.3-2.3 6 0 8.3 2 2 5.2 2.3 7.5 0.7q0.1 0.3 0.3 0.6l3.4 3.3c0.5 0.5 1.2 0.5 1.7 0 0.5-0.5 0.5-1.2 0-1.7l-3.3-3.4q-0.3-0.2-0.6-0.3c1.6-2.3 1.3-5.5-0.7-7.5zm-1 7.3c-1.7 1.7-4.5 1.7-6.2 0-1.7-1.7-1.7-4.5 0-6.2 1.7-1.7 4.5-1.7 6.2 0 1.7 1.7 1.7 4.5 0 6.2z"/>
</svg>